HIERARCHY
ROOT Hips
{
	OFFSET 0.000000 0.000000 0.000000
	CHANNELS 6 Xposition Yposition Zposition Zrotation Yrotation Xrotation 
	JOINT LHipJoint
	{
		OFFSET 0.000000 0.000000 0.000000
		CHANNELS 3 Zrotation Yrotation Xrotation
		JOINT LeftUpLeg
		{
			OFFSET 1.363060 -1.794630 0.839290
			CHANNELS 3 Zrotation Yrotation Xrotation
			JOINT LeftLeg
			{
				OFFSET 2.448110 -6.726130 0.000000
				CHANNELS 3 Zrotation Yrotation Xrotation
				JOINT LeftFoot
				{
					OFFSET 2.562200 -7.039590 0.000000
					CHANNELS 3 Zrotation Yrotation Xrotation
					JOINT LeftToeBase
					{
						OFFSET 0.157640 -0.433110 2.322550
						CHANNELS 3 Zrotation Yrotation Xrotation
						End Site
						{
							OFFSET 0.000000 0.000000 0.000000
						}
					}
				}
			}
		}
	}
	JOINT RHipJoint
	{
		OFFSET 0.000000 0.000000 0.000000
		CHANNELS 3 Zrotation Yrotation Xrotation
		JOINT RightUpLeg
		{
			OFFSET -1.305520 -1.794630 0.839290
			CHANNELS 3 Zrotation Yrotation Xrotation
			JOINT RightLeg
			{
				OFFSET -2.542530 -6.985550 0.000000
				CHANNELS 3 Zrotation Yrotation Xrotation
				JOINT RightFoot
				{
					OFFSET -2.568260 -7.056230 0.000000
					CHANNELS 3 Zrotation Yrotation Xrotation
					JOINT RightToeBase
					{
						OFFSET -0.164730 -0.452590 2.363150
						CHANNELS 3 Zrotation Yrotation Xrotation
						End Site
						{
							OFFSET 0.000000 0.000000 0.000000
						}
					}
				}
			}
		}
	}
	JOINT LowerBack
	{
		OFFSET 0.000000 0.000000 0.000000
		CHANNELS 3 Zrotation Yrotation Xrotation
		JOINT Spine
		{
			OFFSET 0.028270 2.035590 -0.193380
			CHANNELS 3 Zrotation Yrotation Xrotation
			JOINT Spine1
			{
				OFFSET 0.056720 2.048850 -0.042750
				CHANNELS 3 Zrotation Yrotation Xrotation
				JOINT Neck
				{
					OFFSET 0.000000 0.000000 0.000000
					CHANNELS 3 Zrotation Yrotation Xrotation
					JOINT Neck1
					{
						OFFSET -0.054170 1.746240 0.172020
						CHANNELS 3 Zrotation Yrotation Xrotation
						JOINT Head
						{
							OFFSET 0.104070 1.761360 -0.123970
							CHANNELS 3 Zrotation Yrotation Xrotation
							End Site
							{
								OFFSET 0.000000 0.000000 0.000000
							}
						}
					}
				}
				JOINT LeftShoulder
				{
					OFFSET 0.000000 0.000000 0.000000
					CHANNELS 3 Zrotation Yrotation Xrotation
					JOINT LeftArm
					{
						OFFSET 3.362410 1.200890 -0.311210
						CHANNELS 3 Zrotation Yrotation Xrotation
						JOINT LeftForeArm
						{
							OFFSET 4.983000 -0.000000 -0.000000
							CHANNELS 3 Zrotation Yrotation Xrotation
							JOINT LeftHand
							{
								OFFSET 3.483560 -0.000000 -0.000000
								CHANNELS 3 Zrotation Yrotation Xrotation
								JOINT LeftFingerBase
								{
									OFFSET 0.000000 0.000000 0.000000
									CHANNELS 3 Zrotation Yrotation Xrotation
									JOINT LeftHandIndex1
									{
										OFFSET 0.715260 -0.000000 -0.000000
										CHANNELS 3 Zrotation Yrotation Xrotation
										End Site
										{
											OFFSET 0.000000 0.000000 0.000000
										}
									}
								}
								JOINT LThumb
								{
									OFFSET 0.000000 0.000000 0.000000
									CHANNELS 3 Zrotation Yrotation Xrotation
									End Site
									{
										OFFSET 0.000000 0.000000 0.000000
									}
								}
							}
						}
					}
				}
				JOINT RightShoulder
				{
					OFFSET 0.000000 0.000000 0.000000
					CHANNELS 3 Zrotation Yrotation Xrotation
					JOINT RightArm
					{
						OFFSET -3.136600 1.374050 -0.404650
						CHANNELS 3 Zrotation Yrotation Xrotation
						JOINT RightForeArm
						{
							OFFSET -5.241900 -0.000000 -0.000000
							CHANNELS 3 Zrotation Yrotation Xrotation
							JOINT RightHand
							{
								OFFSET -3.444170 -0.000000 -0.000000
								CHANNELS 3 Zrotation Yrotation Xrotation
								JOINT RightFingerBase
								{
									OFFSET 0.000000 0.000000 0.000000
									CHANNELS 3 Zrotation Yrotation Xrotation
									JOINT RightHandIndex1
									{
										OFFSET -0.622530 -0.000000 -0.000000
										CHANNELS 3 Zrotation Yrotation Xrotation
										End Site
										{
											OFFSET 0.000000 0.000000 0.000000
										}
									}
								}
								JOINT RThumb
								{
									OFFSET 0.000000 0.000000 0.000000
									CHANNELS 3 Zrotation Yrotation Xrotation
									End Site
									{
										OFFSET 0.000000 0.000000 0.000000
									}
								}
							}
						}
					}
				}
			}
		}
	}
}
MOTION
Frames: 8
Frame Time: 0.008333
0.109113 17.348809 -37.954876 6.655938 -3.182564 16.946905 -9.090625 0.077132 5.930974 -22.415763 -9.822543 2.879757 4.372749 14.191239 42.446720 1.829948 5.507845 36.173151 0.448700 -4.297500 -11.915200 1.522445 3.168158 -5.195929 -5.562369 7.126323 -55.729631 -6.016822 -16.693462 45.610540 1.792523 -8.388076 4.144561 -0.206600 2.926900 -8.075200 -0.474406 -3.277804 16.252232 0.574212 -3.863495 -4.554147 3.800777 -1.982531 -7.574432 -0.948150 3.717684 -17.810871 -0.349972 4.458650 2.661332 -1.588900 1.570200 5.828700 3.651530 -4.432330 0.543193 -78.495581 -7.894392 58.268881 121.908374 -53.008592 -89.550597 0.017067 -0.349888 -4.517289 20.380937 -3.586311 -1.193300 -7.125000 0.000000 0.000000 -4.734300 26.547400 2.126000 -4.659838 2.875124 -0.148098 84.014706 -16.939999 18.947509 -99.249761 59.452042 -74.357151 1.716893 0.528057 -10.822162 -30.145147 6.223705 -3.670000 7.125000 0.000000 0.000000 -3.839600 -23.032800 -2.035700 
0.072323 17.347866 -37.269904 5.720053 -4.057567 15.916787 -8.669519 -0.353719 5.412248 -22.633357 -7.900837 0.379947 6.313125 15.572695 48.811956 1.610197 4.349138 34.333045 0.264900 -3.311100 -9.146200 1.683325 3.293968 -4.980097 -4.050473 7.568079 -53.739581 -5.995587 -16.600481 45.662205 1.794858 -8.396818 4.916343 -0.398600 4.053500 -11.227200 0.334519 -2.843326 17.120160 0.691547 -3.076921 -4.425465 3.785296 -1.588003 -7.701948 -1.201969 3.647781 -17.573705 -0.485875 4.403843 2.455804 -1.597700 1.525400 5.684100 3.651583 -4.472453 0.552637 -78.414591 -6.681782 58.318497 117.112615 -54.505510 -85.579106 0.013678 -0.358920 -6.071258 19.893601 -4.224175 -1.391000 -7.125000 0.000000 0.000000 -5.075900 25.889500 2.358900 -4.561578 2.947905 -0.176667 83.181033 -14.121010 19.193833 -97.273566 59.377423 -72.869544 1.757803 0.568290 -10.379875 -30.776228 6.268243 -3.757900 7.125000 0.000000 0.000000 -4.337200 -22.999600 -2.304200 
0.035637 17.348390 -36.576233 4.412845 -4.630010 14.836796 -8.293727 -0.676794 4.928412 -22.107607 -6.174100 -2.127988 8.243619 16.725900 54.973080 1.366789 3.253985 31.969839 0.289400 -3.459400 -9.560400 1.912922 3.355908 -4.708954 -2.005322 7.700550 -51.310275 -6.002656 -16.506716 45.900330 1.714052 -8.124246 5.625712 -0.344000 3.768700 -10.426700 1.679754 -2.534910 18.058791 0.840791 -2.324621 -4.272542 3.566191 -1.240472 -7.791361 -1.266930 3.579440 -17.462897 -0.709914 4.310647 2.334203 -1.682000 1.456600 5.615000 3.657820 -4.531915 0.558031 -78.279992 -5.642935 58.140290 111.354278 -55.869696 -80.793073 0.022316 -0.400372 -7.289129 18.374587 -4.133193 -1.233700 -7.125000 0.000000 0.000000 -6.225600 26.061800 2.873400 -4.448466 3.017727 -0.199140 82.457749 -11.147633 19.573001 -95.341079 59.243948 -71.381167 1.794766 0.604596 -10.204168 -31.327499 6.385070 -3.888800 7.125000 0.000000 0.000000 -4.765300 -22.872300 -2.547000 
-0.014674 17.341786 -35.885706 2.882023 -5.138174 13.869344 -7.988426 -0.944958 4.449916 -20.943280 -4.489716 -4.938826 10.139184 17.659687 60.810893 1.090902 2.506426 29.283910 0.368900 -3.901200 -10.799000 2.207039 3.371780 -4.390551 0.292691 7.820830 -48.771416 -6.046935 -16.420268 46.294758 1.642463 -7.868236 6.360537 -0.434200 4.228600 -11.720800 3.099025 -2.257000 19.007118 1.033929 -1.562717 -4.127367 3.452582 -0.891564 -7.906258 -1.365015 3.504012 -17.378081 -0.894227 4.216829 2.223012 -1.742100 1.389700 5.556200 3.666382 -4.600379 0.548840 -78.228826 -4.601478 58.081760 104.216842 -56.996377 -74.775170 -0.016748 -0.384265 -5.817232 19.510971 -4.310786 -1.386900 -7.125000 0.000000 0.000000 -5.339600 25.831000 2.489700 -4.325428 3.092280 -0.218673 81.821639 -7.951350 20.055300 -93.437065 59.055084 -69.894058 1.809597 0.639472 -10.249904 -31.466222 6.482247 -3.950700 7.125000 0.000000 0.000000 -4.876800 -22.790100 -2.616200 
-0.072218 17.380673 -35.219601 1.768335 -5.525846 12.878294 -7.735602 -1.234733 3.831113 -19.840468 -3.300636 -8.626665 11.927875 18.382349 66.152484 0.667126 2.283007 25.540730 0.330900 -3.697200 -10.226400 2.509076 3.320557 -3.958629 2.137595 7.482574 -46.013739 -6.280709 -16.426405 47.355181 1.367886 -6.851879 5.708528 -0.092600 1.962400 -5.401700 3.946162 -2.028160 20.495560 1.154956 -0.932351 -4.082112 3.399631 -0.565539 -8.566133 -1.426421 3.391406 -17.063000 -0.981519 4.050600 2.093212 -1.763000 1.302500 5.473000 3.637668 -4.676689 0.515064 -78.062066 -3.364420 57.125915 97.373523 -57.581085 -69.045870 -0.054696 -0.331836 -3.458357 21.239453 -5.482220 -1.997400 -7.125000 0.000000 0.000000 -4.004400 24.478200 1.989900 -4.240887 3.217183 -0.229030 81.882818 -4.699484 20.763513 -92.413263 58.847746 -69.057379 1.821786 0.645487 -10.188337 -31.518653 6.656250 -4.066800 7.125000 0.000000 0.000000 -4.909100 -22.591500 -2.656000 
-0.127456 17.366208 -34.554963 0.558484 -6.003963 11.985922 -7.471833 -1.462647 3.305952 -18.681898 -2.101425 -11.822881 13.676490 18.954727 71.359668 0.454385 1.808793 22.540946 0.323600 -3.656300 -10.111500 2.767518 3.241907 -3.576121 3.922273 7.390207 -43.704094 -6.535243 -16.466646 48.451742 1.234348 -6.264567 4.546331 -0.080600 1.831400 -5.040000 5.030607 -1.787288 21.697123 1.279966 -0.231820 -3.993181 3.209891 -0.236723 -8.951009 -1.464359 3.287262 -16.883747 -1.127695 3.895450 1.948255 -1.811300 1.214400 5.392400 3.613102 -4.746864 0.495023 -77.805284 -2.274409 56.745503 91.178967 -57.732256 -63.733238 -0.080756 -0.309083 -2.723179 21.923709 -5.958301 -2.270500 -7.125000 0.000000 0.000000 -3.477500 23.915700 1.772300 -4.145112 3.309502 -0.240660 81.633353 -1.567943 21.335302 -91.146128 58.628284 -68.027407 1.837386 0.650163 -9.997785 -31.627784 6.829476 -4.190000 7.125000 0.000000 0.000000 -4.984300 -22.392600 -2.719700 
-0.188144 17.328579 -33.902380 -0.680786 -6.447718 11.178969 -7.196999 -1.690063 2.746160 -17.354699 -1.074483 -15.268337 15.331292 19.379518 76.237519 0.278007 1.406351 19.376747 0.321800 -3.646400 -10.083900 2.999332 3.136020 -3.173774 5.683893 7.265199 -41.529772 -6.884590 -16.565647 49.852293 1.076644 -5.636583 2.654065 -0.087600 1.909000 -5.254200 6.136162 -1.568805 22.913196 1.391168 0.465340 -3.919137 2.940867 0.084325 -9.369381 -1.434018 3.181094 -16.712386 -1.276111 3.719775 1.785067 -1.870000 1.118700 5.306000 3.584358 -4.813485 0.476868 -77.451270 -1.184502 56.260549 85.721941 -57.601762 -59.023335 -0.105853 -0.282163 -2.043979 22.691617 -6.356318 -2.537800 -7.125000 0.000000 0.000000 -2.895100 23.422600 1.507600 -4.059418 3.398276 -0.250749 81.573339 1.523215 21.949821 -90.149283 58.410915 -67.199342 1.849350 0.643709 -9.723222 -31.660321 6.998874 -4.304300 7.125000 0.000000 0.000000 -4.998500 -22.193900 -2.750300 
-0.252816 17.280993 -33.257448 -1.935870 -6.856223 10.500688 -6.899021 -1.930834 2.142735 -15.909286 -0.234402 -18.940305 16.853920 19.677259 80.684340 0.152150 1.042045 16.130804 0.313800 -3.601000 -9.956800 3.214571 3.015423 -2.756246 7.427123 7.059733 -39.373816 -7.208445 -16.634680 51.145028 0.904244 -5.079165 0.346535 -0.120700 2.239700 -6.168600 7.248105 -1.363900 24.071961 1.487205 1.154779 -3.860772 2.589583 0.393586 -9.783480 -1.332584 3.076325 -16.559185 -1.420388 3.528157 1.596265 -1.936400 1.018200 5.209000 3.555270 -4.870899 0.464542 -76.987608 -0.071384 55.655669 81.372646 -57.337263 -55.279910 -0.127528 -0.259019 -1.640502 23.384966 -6.728724 -2.796800 -7.125000 0.000000 0.000000 -2.374600 22.958400 1.261300 -3.987910 3.476251 -0.260426 81.716357 4.494237 22.601616 -89.469287 58.213657 -66.619996 1.857732 0.627500 -9.363342 -31.624333 7.151339 -4.400800 7.125000 0.000000 0.000000 -4.959800 -22.012000 -2.749400 
